<!-- Generated by IcoMoon.io -->
<svg version="1.1" xmlns="http://www.w3.org/2000/svg" width="28" height="28" viewBox="0 0 28 28">
<title>user-check</title>
<path d="M19.833 24.5v-2.333c0-1.61-0.655-3.071-1.708-4.125s-2.515-1.708-4.125-1.708h-8.167c-1.61 0-3.071 0.654-4.125 1.708s-1.708 2.515-1.708 4.125v2.333c0 0.644 0.523 1.167 1.167 1.167s1.167-0.523 1.167-1.167v-2.333c0-0.967 0.391-1.84 1.025-2.474s1.507-1.026 2.474-1.026h8.167c0.967 0 1.84 0.391 2.475 1.026s1.025 1.507 1.025 2.474v2.333c0 0.644 0.523 1.167 1.167 1.167s1.167-0.523 1.167-1.167zM15.75 8.167c0-1.61-0.655-3.071-1.708-4.125s-2.515-1.708-4.125-1.708-3.071 0.655-4.125 1.708-1.708 2.515-1.708 4.125 0.655 3.071 1.708 4.125 2.515 1.708 4.125 1.708 3.071-0.654 4.125-1.708 1.708-2.515 1.708-4.125zM13.417 8.167c0 0.967-0.391 1.84-1.026 2.474s-1.507 1.026-2.474 1.026-1.84-0.391-2.474-1.026-1.025-1.507-1.025-2.474 0.391-1.84 1.025-2.474 1.507-1.025 2.474-1.025 1.84 0.391 2.474 1.025 1.026 1.507 1.026 2.474zM19.009 13.658l2.333 2.333c0.456 0.456 1.195 0.456 1.65 0l4.667-4.667c0.456-0.456 0.456-1.195 0-1.65s-1.195-0.456-1.65 0l-3.842 3.842-1.508-1.508c-0.456-0.456-1.195-0.456-1.65 0s-0.456 1.195 0 1.65z"></path>
</svg>
